<svg width="42" height="22" viewBox="0 0 42 22" fill="none" xmlns="http://www.w3.org/2000/svg">
<path d="M11.8333 22C8.7777 22 6.18047 20.9306 4.04159 18.7917C1.9027 16.6528 0.833252 14.0556 0.833252 11C0.833252 7.94444 1.9027 5.34722 4.04159 3.20833C6.18047 1.06944 8.7777 0 11.8333 0H30.1666C33.2221 0 35.8194 1.06944 37.9583 3.20833C40.0971 5.34722 41.1666 7.94444 41.1666 11C41.1666 14.0556 40.0971 16.6528 37.9583 18.7917C35.8194 20.9306 33.2221 22 30.1666 22H11.8333ZM30.1666 16.5C31.6944 16.5 32.993 15.9653 34.0624 14.8958C35.1319 13.8264 35.6666 12.5278 35.6666 11C35.6666 9.47222 35.1319 8.17361 34.0624 7.10417C32.993 6.03472 31.6944 5.5 30.1666 5.5C28.6388 5.5 27.3402 6.03472 26.2708 7.10417C25.2013 8.17361 24.6666 9.47222 24.6666 11C24.6666 12.5278 25.2013 13.8264 26.2708 14.8958C27.3402 15.9653 28.6388 16.5 30.1666 16.5Z" fill="white"/>
</svg>
