<svg width="42" height="22" viewBox="0 0 42 22" fill="none" xmlns="http://www.w3.org/2000/svg">
<path d="M11.8333 22C8.7777 22 6.18047 20.9306 4.04159 18.7917C1.9027 16.6528 0.833252 14.0556 0.833252 11C0.833252 7.94444 1.9027 5.34722 4.04159 3.20833C6.18047 1.06944 8.7777 0 11.8333 0H30.1666C33.2221 0 35.8194 1.06944 37.9583 3.20833C40.0971 5.34722 41.1666 7.94444 41.1666 11C41.1666 14.0556 40.0971 16.6528 37.9583 18.7917C35.8194 20.9306 33.2221 22 30.1666 22H11.8333ZM11.8333 18.3333H30.1666C32.1833 18.3333 33.9096 17.6153 35.3458 16.1792C36.7819 14.7431 37.4999 13.0167 37.4999 11C37.4999 8.98333 36.7819 7.25694 35.3458 5.82083C33.9096 4.38472 32.1833 3.66667 30.1666 3.66667H11.8333C9.81659 3.66667 8.0902 4.38472 6.65409 5.82083C5.21797 7.25694 4.49992 8.98333 4.49992 11C4.49992 13.0167 5.21797 14.7431 6.65409 16.1792C8.0902 17.6153 9.81659 18.3333 11.8333 18.3333ZM11.8333 16.5C13.361 16.5 14.6596 15.9653 15.7291 14.8958C16.7985 13.8264 17.3333 12.5278 17.3333 11C17.3333 9.47222 16.7985 8.17361 15.7291 7.10417C14.6596 6.03472 13.361 5.5 11.8333 5.5C10.3055 5.5 9.00686 6.03472 7.93742 7.10417C6.86797 8.17361 6.33325 9.47222 6.33325 11C6.33325 12.5278 6.86797 13.8264 7.93742 14.8958C9.00686 15.9653 10.3055 16.5 11.8333 16.5Z" fill="white"/>
</svg>
